PathFileType	4	(X/Y/Z)	D:\TRACE\spot_10-12-23\spot_arm_body_motion_1_5-v60.trc
DataRate	CameraRate	NumFrames	NumMarkers	Units	OrigDataRate	OrigDataStartFrame	OrigNumFrames
100.00	100.00	      31	9	mm	100.00	5251	      7000
Frame#	Time	front left toe			Front right toe			aft left toe			aft right toe			Arm			FL body			FR body			AL Body			AR Body			
		X1	Y1	Z1	X2	Y2	Z2	X3	Y3	Z3	X4	Y4	Z4	X5	Y5	Z5	X6	Y6	Z6	X7	Y7	Z7	X8	Y8	Z8	X9	Y9	Z9	

5251	52.500	-197.70428	37.06764	-449.95157	239.40396	35.51934	-417.64896	-211.70345	16.79739	150.11180	170.92831	16.61113	183.90564	42.49460	770.75275	-730.90692	-62.05233	601.30951	-485.87631	92.46088	605.44922	-477.00183	-119.44939	568.87244	394.55322	21.72728	567.19165	405.61151	
5252	52.510	-197.57735	37.46068	-449.80081	239.33144	35.30529	-417.78973	-211.59799	16.87091	150.26591	171.06097	16.37009	184.04929	42.83257	771.15863	-730.70477	-59.98188	601.28320	-485.08676	93.61940	605.45459	-476.02756	-117.73218	568.39429	394.64612	23.31157	566.61859	405.99649	
5253	52.520	-197.52571	37.86879	-449.69785	237.43553	34.91564	-418.94379	-211.54625	16.86225	150.38164	171.25311	16.13567	184.31392	43.28915	771.58557	-730.43250	-58.00278	601.11401	-484.44437	95.20976	605.45203	-475.58295	-115.28587	567.35437	395.30835	25.12366	565.94421	406.51270	
5254	52.530	-197.47540	38.13643	-449.60992	237.41490	34.97216	-418.83585	-211.44241	16.85984	150.51292	171.37607	15.91521	184.43320	43.53847	771.82166	-730.15833	-56.17189	601.10297	-483.59607	98.30955	605.58459	-474.69504	-113.82482	566.82458	396.23383	27.12580	565.38647	407.41901	
5255	52.540	-197.29781	38.44133	-449.50830	237.52686	35.06691	-418.61319	-211.29726	16.90124	150.55818	171.42114	15.80157	184.60277	43.86655	772.00958	-729.91992	-54.20791	601.20117	-482.93497	100.10479	605.69110	-473.94504	-111.57536	566.25635	396.73813	29.14161	564.77643	408.20618	
5256	52.550	-196.86885	38.72472	-449.29486	237.63332	35.12223	-418.45013	-211.51834	17.35468	150.72919	171.58162	15.57327	184.79294	44.42911	772.24933	-729.57916	-52.15794	601.25995	-482.03543	101.30585	605.84424	-473.04779	-109.74133	565.53546	397.76291	31.32166	564.14813	408.92908	
5257	52.560	-196.75143	39.20195	-449.22287	237.76128	35.23370	-418.24872	-210.90022	17.15298	150.74548	171.69865	15.26977	184.89209	44.73243	772.61023	-729.14709	-50.36934	601.53119	-481.23959	104.02023	606.15149	-472.40414	-107.65858	565.16101	398.57425	33.29351	563.60504	409.58240	
5258	52.570	-196.95226	39.79551	-449.14246	237.90970	35.45982	-418.01697	-210.85780	17.23901	150.87462	171.68533	15.00459	185.09171	45.06945	772.70367	-728.80939	-48.44124	601.62244	-480.43033	106.12199	606.41534	-471.36435	-105.87754	564.27869	399.36453	35.29719	563.04376	410.47919	
5259	52.580	-197.05042	40.24534	-449.05380	237.82475	35.56000	-417.95526	-210.83167	17.49012	151.05840	171.63179	14.75207	185.27715	45.51395	772.78888	-728.42676	-46.55414	601.85675	-479.38150	107.81097	606.70020	-470.60632	-103.67271	563.68024	400.48679	37.43462	562.44714	411.64484	
5260	52.590	-197.15106	40.58761	-449.02036	237.76588	35.67078	-417.86926	-210.95457	17.70782	151.14796	171.46165	14.41512	185.42845	45.92219	772.83154	-728.13458	-44.67189	602.11591	-478.59357	109.72598	607.06183	-469.53381	-101.59034	562.91022	401.22461	39.26315	561.77435	412.09186	
5261	52.600	-197.26697	41.04352	-449.04150	237.65327	35.70975	-417.81235	-211.07188	17.86771	151.26474	171.29224	14.19181	185.55103	46.21630	772.95837	-727.89307	-42.32983	602.40887	-477.49252	111.94346	607.34277	-468.55060	-99.66776	562.28290	402.10742	41.53772	561.27344	413.20456	
5262	52.610	-197.29483	41.40408	-448.91324	237.61926	35.72237	-417.72375	-211.19252	18.03580	151.33838	171.39365	13.91873	185.55800	46.61172	773.19513	-727.53906	-40.78624	602.89557	-476.61993	113.55598	607.75494	-467.71762	-97.54189	561.48358	403.14392	43.59230	560.59351	414.09448	
5263	52.620	-197.28612	41.71233	-448.75748	237.61517	35.68427	-417.62283	-211.27058	18.19262	151.46608	171.25928	13.69395	185.69293	46.95005	773.38013	-727.24866	-38.80190	603.09088	-475.57401	115.47636	607.93732	-465.99686	-95.81342	561.08649	404.05502	45.41179	560.03802	415.18677	
5264	52.630	-197.19514	42.29967	-448.61804	237.65002	35.60450	-417.45798	-211.26912	18.32214	151.56657	171.20352	13.30770	185.81770	47.26052	773.59528	-727.03107	-36.54852	603.54010	-474.53140	117.40456	608.38440	-465.15591	-93.76264	560.06226	405.02765	47.16175	559.18256	416.01038	
5265	52.640	-196.11389	45.87793	-447.48520	237.63925	35.24440	-417.24619	-211.15717	18.44098	151.65953	171.35999	13.04302	186.13641	47.59475	773.86359	-726.91998	-35.00956	603.62061	-473.58627	119.42307	608.94379	-464.62643	-92.36594	559.63501	405.85883	48.94069	558.61896	417.02649	
5266	52.650	-193.70090	58.75566	-444.21158	238.03693	34.70443	-417.94119	-211.08798	18.61548	151.58035	171.40880	12.73682	186.28979	48.08274	774.18970	-726.74213	-32.86867	603.71674	-472.88034	121.51442	609.28497	-463.68726	-90.91880	558.81689	406.30450	50.15802	558.05908	417.63000	
5267	52.660	-192.83586	70.26349	-439.14532	237.76755	34.86249	-416.57776	-211.30769	18.69561	151.67711	171.10327	12.65002	186.42735	48.48919	774.38635	-726.72021	-30.71873	603.57373	-472.46399	123.29718	609.30243	-463.03506	-89.55961	558.22003	407.07562	51.64621	557.75336	418.55841	
5268	52.670	-193.09514	83.88867	-437.52634	237.47235	34.73433	-416.55328	-211.56876	18.74152	151.86354	170.53946	12.53754	186.41937	48.77718	774.51300	-726.63544	-29.48476	603.24475	-471.53375	124.94729	609.30566	-462.37454	-88.21808	557.76367	407.69638	53.00639	557.50262	418.99438	
5269	52.680	-193.94122	99.48982	-439.48886	237.07430	34.81125	-416.43582	-211.71625	18.81397	151.95422	170.32852	12.37243	186.52582	48.88081	774.59467	-726.43317	-28.38150	603.17621	-470.99670	125.88960	609.35052	-461.19788	-86.80585	557.41064	408.40103	54.34233	557.24060	419.70645	
5270	52.690	-194.26866	115.30606	-443.01013	236.58731	34.98796	-416.42474	-211.81812	18.92073	152.05756	170.17224	12.04340	186.68381	48.87654	774.50848	-726.24237	-27.34523	603.35474	-470.16745	127.23897	609.50122	-461.07874	-85.44736	556.70050	408.99283	55.56785	556.47583	420.18008	
5271	52.700	-193.43593	131.29376	-446.17047	236.22269	35.17535	-416.49289	-212.02521	19.00763	152.10904	170.01300	11.74483	186.79097	49.11931	774.41199	-725.99646	-26.47101	603.75647	-469.60736	127.95755	609.81531	-460.40063	-84.56553	556.16797	409.65735	56.73869	555.92273	421.02338	
5272	52.710	-192.56384	145.77501	-446.81934	235.79642	35.34721	-416.47806	-212.25883	19.03188	152.20757	169.84738	11.62939	186.88762	49.42062	774.39258	-725.73651	-25.82446	604.10089	-469.01163	128.55099	610.18036	-459.79364	-83.43299	555.50201	410.21313	57.82571	555.29596	421.57108	
5273	52.720	-190.93091	158.14418	-444.93710	235.39810	35.45488	-416.52472	-212.63805	19.09588	152.23082	169.65176	11.59270	186.94341	49.87545	774.40436	-725.46613	-25.28867	604.42657	-468.34528	129.04951	610.56158	-459.32837	-82.57777	554.98425	410.85779	58.89203	554.93781	422.51416	
5274	52.730	-190.30118	169.71988	-442.42966	235.25668	35.44241	-416.51196	-213.21646	19.09450	152.37657	169.19859	11.51435	187.12303	50.42786	774.38409	-725.24432	-24.81148	604.75970	-467.85474	129.31731	610.75482	-458.37277	-82.12234	554.54669	411.44009	59.13337	554.47076	422.54437	
5275	52.740	-190.47855	181.51564	-440.59531	234.98849	35.55477	-416.51566	-213.65567	19.09464	152.51881	168.53738	11.50312	187.20694	51.04855	774.47156	-725.07074	-24.39076	604.94946	-467.42456	130.03979	611.01843	-457.67984	-81.91451	554.21191	411.71887	59.50087	554.06201	422.85535	
5276	52.750	-190.94319	193.37350	-440.25064	234.49799	35.61819	-416.31369	-213.95535	19.00337	152.59467	167.69365	11.41733	187.26407	51.55222	774.59839	-724.91943	-23.94505	604.96613	-466.84167	130.37660	611.11420	-457.37802	-81.28030	553.81439	412.09979	59.96207	553.72119	423.57498	
5277	52.760	-191.52573	204.12650	-440.03616	233.98703	35.58873	-416.07358	-214.35396	19.02997	152.68187	167.32047	11.32691	187.36931	51.86870	774.94226	-724.96033	-23.80821	604.92749	-466.41766	130.69571	611.09363	-457.54312	-81.14127	553.64209	412.82510	60.06807	553.61798	424.02682	
5278	52.770	-190.56056	211.72540	-438.08783	233.43282	35.59766	-415.98004	-214.82492	19.12726	152.75667	166.94225	11.27884	187.34494	52.36634	776.00134	-724.94299	-23.50899	604.85132	-466.23492	130.57805	610.96942	-457.24863	-81.14981	553.64728	413.10922	60.04522	553.59314	424.33524	
5279	52.780	-188.80470	215.69109	-434.33875	232.85245	35.62832	-416.01889	-215.22566	19.21474	152.74471	166.74702	11.27265	187.23601	52.93540	777.62982	-724.32373	-24.20169	604.44092	-466.15329	130.25008	610.60266	-457.17029	-81.23415	553.67578	413.19421	60.07318	553.65729	424.45288	
5280	52.790	-186.70436	213.26141	-426.67462	232.36139	35.65212	-416.06824	-215.63568	19.28437	152.87006	166.22020	11.22127	187.28526	54.09616	780.36499	-723.33728	-24.73880	603.67566	-466.14255	129.24794	610.22668	-457.31445	-81.33393	553.76166	413.19800	59.85654	553.81219	424.32635	
5281	52.800	-184.29860	208.71390	-417.56934	232.01523	35.94173	-416.01834	-216.03024	19.04797	153.03221	165.58589	11.36397	187.44780	56.29961	784.13947	-721.51025	-25.73328	603.14447	-466.39719	128.56923	609.79510	-457.60941	-81.56705	553.82129	413.04495	59.70277	553.93335	424.07108	
